# xmcd CD database file
#
# Track frame offsets:
#	150
#	20360
#	40597
#
# Disc length: 807 seconds
#
# Revision: 1
# Processed by: cddbd v1.5.1PL0 Copyright (c) Steve Scherf et al.
# Submitted via: CDex 1.40Beta9
#
DISCID=16032503
DTITLE=Zero - その日までさよなら
DYEAR=2005
DGENRE=Japanese Pop
TTITLE0=その日までさよなら (日本語)
TTITLE1=その日までさよなら (韓国語)
TTITLE2=その日までさよなら　(カラオケ)
EXTD=YEAR: 2005/01/26
EXTT0=
EXTT1=
EXTT2=
PLAYORDER=
